<svg id="Component_49_7" data-name="Component 49 – 7" xmlns="http://www.w3.org/2000/svg" width="22" height="22" viewBox="0 0 22 22">
  <g id="Group_12164" data-name="Group 12164" transform="translate(-397 -415)">
    <circle id="Ellipse_11333" data-name="Ellipse 11333" cx="11" cy="11" r="11" transform="translate(397 415)" fill="#e50000"/>
    <path id="error" d="M192.99-766.048l-3.639,3.639a1.338,1.338,0,0,1-.981.409,1.272,1.272,0,0,1-.961-.409,1.326,1.326,0,0,1-.409-.971,1.327,1.327,0,0,1,.409-.971l3.639-3.639-3.639-3.659a1.327,1.327,0,0,1-.409-.971,1.327,1.327,0,0,1,.409-.971,1.272,1.272,0,0,1,.961-.409,1.338,1.338,0,0,1,.981.409l3.639,3.639,3.639-3.639a1.338,1.338,0,0,1,.981-.409,1.272,1.272,0,0,1,.961.409,1.327,1.327,0,0,1,.409.971,1.327,1.327,0,0,1-.409.971l-3.639,3.659,3.639,3.639a1.327,1.327,0,0,1,.409.971,1.326,1.326,0,0,1-.409.971,1.272,1.272,0,0,1-.961.409,1.338,1.338,0,0,1-.981-.409Z" transform="translate(215.01 1194)" fill="#fff"/>
  </g>
</svg>
