<svg id="Component_49_8" data-name="Component 49 – 8" xmlns="http://www.w3.org/2000/svg" width="22" height="22" viewBox="0 0 22 22">
  <g id="Group_12185" data-name="Group 12185" transform="translate(-397 -415)">
    <circle id="Ellipse_11333" data-name="Ellipse 11333" cx="11" cy="11" r="11" transform="translate(397 415)" fill="#1c1d1f"/>
    <path id="especificar" d="M401.333-828a1.284,1.284,0,0,1-.942-.392,1.284,1.284,0,0,1-.392-.942,1.284,1.284,0,0,1,.392-.942,1.284,1.284,0,0,1,.942-.392,1.284,1.284,0,0,1,.942.392,1.284,1.284,0,0,1,.392.942,1.284,1.284,0,0,1-.392.942A1.284,1.284,0,0,1,401.333-828ZM400-832v-8h2.667v8Z" transform="translate(6.734 1260)" fill="#fff"/>
  </g>
</svg>
