<svg id="Component_49_5" data-name="Component 49 – 5" xmlns="http://www.w3.org/2000/svg" width="22" height="22" viewBox="0 0 22 22">
  <g id="Group_12164" data-name="Group 12164" transform="translate(-397 -415)">
    <circle id="Ellipse_11333" data-name="Ellipse 11333" cx="11" cy="11" r="11" transform="translate(397 415)" fill="#00ba2a"/>
    <path id="afirmacion" d="M145.287-727.935l5.71-5.709a1.152,1.152,0,0,1,.851-.356,1.233,1.233,0,0,1,.874.352,1.167,1.167,0,0,1,.356.863,1.179,1.179,0,0,1-.356.866l-6.581,6.563a1.156,1.156,0,0,1-.852.356,1.166,1.166,0,0,1-.855-.356l-3.077-3.059a1.211,1.211,0,0,1-.356-.869,1.173,1.173,0,0,1,.352-.856,1.186,1.186,0,0,1,.872-.374,1.141,1.141,0,0,1,.857.374Z" transform="translate(260.961 1155.5)" fill="#fff"/>
  </g>
</svg>
