<svg version="1.1" id="Layer_1" xmlns="http://www.w3.org/2000/svg" xmlns:xlink="http://www.w3.org/1999/xlink" x="0px" y="0px" viewBox="0 0 500 500" style="width: 185px;" xml:space="preserve" data-imageid="cybersecurity-1-28" imageName="Cybersecurity 1" class="illustrations_image">
<style type="text/css">
	.st0_cybersecurity-1-28{fill:#68E1FD;}
	.st1_cybersecurity-1-28{fill:#093F68;}
	.st2_cybersecurity-1-28{fill:#FFFFFF;}
	.st3_cybersecurity-1-28{fill:#F56132;}
	.st4_cybersecurity-1-28{fill:#FFBC0E;}
	.st5_cybersecurity-1-28{fill:#70CC40;}
	.st6_cybersecurity-1-28{fill:#DFEAEF;}
</style>
<g id="screen-2_cybersecurity-1-28">
	<path class="st0_cybersecurity-1-28 targetColor" d="M99.9,142.9h325.3c5.4,0,9.9,4.4,9.9,9.9v216.1c0,5.4-4.4,9.9-9.9,9.9H99.9c-5.4,0-9.8-4.4-9.8-9.9V152.7&#xA;&#9;&#9;C90.1,147.3,94.5,142.9,99.9,142.9z" style="fill: rgb(104, 225, 253);"/>
	<path class="st1_cybersecurity-1-28" d="M424.8,380.5H100.3c-6.7,0-12.1-5.4-12.1-12.1V153.1c0-6.7,5.4-12.1,12.1-12.1h324.5c6.7,0,12.1,5.4,12.1,12.1&#xA;&#9;&#9;v215.3C436.9,375.1,431.5,380.5,424.8,380.5z M100.3,144.7c-4.7,0-8.4,3.8-8.4,8.4v215.3c0,4.7,3.8,8.4,8.4,8.5h324.5&#xA;&#9;&#9;c4.7,0,8.4-3.8,8.5-8.5V153.1c0-4.7-3.8-8.4-8.5-8.4L100.3,144.7z"/>
</g>
<g id="screen-1_cybersecurity-1-28">
	<path class="st2_cybersecurity-1-28" d="M75.5,122.3H401c5.4,0,9.8,4.4,9.8,9.8v216.2c0,5.4-4.4,9.8-9.8,9.8H75.5c-5.4,0-9.8-4.4-9.8-9.8V132&#xA;&#9;&#9;C65.8,126.6,70.1,122.3,75.5,122.3z"/>
	<path class="st1_cybersecurity-1-28" d="M400.5,359.9H76c-6.7,0-12.1-5.4-12.1-12.1V132.5c0-6.7,5.4-12.1,12.1-12.1h324.5c6.7,0,12.1,5.4,12.1,12.1&#xA;&#9;&#9;v215.3C412.6,354.4,407.2,359.9,400.5,359.9z M76,124.1c-4.7,0-8.4,3.8-8.4,8.4v215.3c0,4.7,3.8,8.4,8.4,8.5h324.5&#xA;&#9;&#9;c4.7,0,8.4-3.8,8.5-8.5V132.5c0-4.7-3.8-8.4-8.5-8.4H76z"/>
	<path class="st0_cybersecurity-1-28 targetColor" d="M76,122.3h324.6c5.6,0,10.2,4.6,10.2,10.2v0v20.8l0,0h-345l0,0v-20.8C65.8,126.8,70.3,122.3,76,122.3&#xA;&#9;&#9;C76,122.3,76,122.3,76,122.3z" style="fill: rgb(104, 225, 253);"/>
	<path class="st1_cybersecurity-1-28" d="M410.8,155.1h-345c-1,0-1.8-0.8-1.8-1.8c0,0,0,0,0,0v-20.7c0-6.7,5.4-12.1,12-12.1h324.5&#xA;&#9;&#9;c6.7,0,12.1,5.4,12.1,12.1v20.7C412.6,154.2,411.8,155,410.8,155.1C410.8,155,410.8,155.1,410.8,155.1z M67.6,151.4H409v-18.9&#xA;&#9;&#9;c0-4.7-3.8-8.4-8.5-8.4H76c-4.7,0-8.4,3.8-8.4,8.4L67.6,151.4z"/>
	<circle class="st3_cybersecurity-1-28" cx="86.7" cy="137.8" r="5.1"/>
	<path class="st1_cybersecurity-1-28" d="M86.7,144.7c-3.8,0-6.9-3.1-6.9-6.9c0-3.8,3.1-6.9,6.9-6.9c3.8,0,6.9,3.1,6.9,6.9c0,0,0,0,0,0&#xA;&#9;&#9;C93.6,141.6,90.5,144.7,86.7,144.7z M86.7,134.4c-1.8,0-3.3,1.5-3.3,3.3c0,1.8,1.5,3.3,3.3,3.3c1.8,0,3.3-1.5,3.3-3.3c0,0,0,0,0,0&#xA;&#9;&#9;C90,135.9,88.5,134.4,86.7,134.4L86.7,134.4z"/>
	<circle class="st4_cybersecurity-1-28" cx="106.1" cy="137.8" r="5.1"/>
	<path class="st1_cybersecurity-1-28" d="M106.1,144.7c-3.8,0-6.9-3.1-6.9-6.9c0-3.8,3.1-6.9,6.9-6.9c3.8,0,6.9,3.1,6.9,6.9c0,0,0,0,0,0&#xA;&#9;&#9;C113,141.6,109.9,144.7,106.1,144.7z M106.1,134.4c-1.8,0-3.3,1.5-3.3,3.3c0,1.8,1.5,3.3,3.3,3.3c1.8,0,3.3-1.5,3.3-3.3l0,0&#xA;&#9;&#9;C109.4,135.9,107.9,134.4,106.1,134.4L106.1,134.4z"/>
	<circle class="st5_cybersecurity-1-28" cx="125.5" cy="137.8" r="5.1"/>
	<path class="st1_cybersecurity-1-28" d="M125.5,144.7c-3.8,0-6.9-3.1-6.9-6.9c0-3.8,3.1-6.9,6.9-6.9c3.8,0,6.9,3.1,6.9,6.9c0,0,0,0,0,0&#xA;&#9;&#9;C132.4,141.6,129.3,144.7,125.5,144.7z M125.5,134.4c-1.8,0-3.3,1.5-3.3,3.3c0,1.8,1.5,3.3,3.3,3.3c1.8,0,3.3-1.5,3.3-3.3&#xA;&#9;&#9;c0,0,0,0,0,0C128.8,135.9,127.3,134.4,125.5,134.4L125.5,134.4z"/>
	<path class="st2_cybersecurity-1-28" d="M315.7,247.3c0,18.2-6.4,35.8-18.1,49.7c-1.3,1.6-2.8,3.2-4.2,4.7c-30.1,30.4-79.1,30.7-109.5,0.6&#xA;&#9;&#9;c-0.2-0.2-0.4-0.4-0.6-0.6c-1.5-1.5-2.9-3-4.2-4.7c-24.1-28.8-24.1-70.7,0-99.5c1.3-1.6,2.8-3.2,4.2-4.7c30-30.4,79-30.6,109.4-0.6&#xA;&#9;&#9;c0.2,0.2,0.4,0.4,0.6,0.6c1.5,1.5,2.9,3.1,4.3,4.7C309.3,211.5,315.7,229.1,315.7,247.3z"/>
	<path class="st1_cybersecurity-1-28" d="M238.3,326.5c-21.2,0.1-41.5-8.4-56.4-23.5c-1.5-1.5-3-3.1-4.4-4.8c-24.7-29.5-24.7-72.4,0.1-101.8&#xA;&#9;&#9;c1.4-1.6,2.8-3.3,4.4-4.8c30.7-31.1,80.8-31.4,111.9-0.7c0.2,0.2,0.5,0.5,0.7,0.7c1.5,1.5,3,3.1,4.4,4.8&#xA;&#9;&#9;c24.7,29.4,24.7,72.3,0,101.8c-1.4,1.7-2.8,3.3-4.4,4.8C279.7,318.1,259.4,326.6,238.3,326.5z M238.3,171.7&#xA;&#9;&#9;c-20.2-0.1-39.6,8-53.7,22.4c-1.5,1.5-2.9,3-4.1,4.6c-23.6,28.1-23.6,69-0.1,97.1c1.3,1.6,2.7,3.1,4.1,4.6&#xA;&#9;&#9;c29.4,29.7,77.3,30,107,0.6c0.2-0.2,0.4-0.4,0.6-0.6c1.5-1.5,2.8-3,4.1-4.6c23.6-28.1,23.6-69,0-97.1c-1.3-1.6-2.7-3.1-4.1-4.6&#xA;&#9;&#9;C277.9,179.8,258.5,171.7,238.3,171.7z"/>
	<path class="st1_cybersecurity-1-28" d="M238.3,326.5c-21.2,0.1-41.5-8.4-56.4-23.5c-1.5-1.5-3-3.1-4.4-4.8c-0.3-0.4-0.5-0.9-0.4-1.4&#xA;&#9;&#9;c0-0.5,0.3-0.9,0.7-1.2c1.1-0.9,2.7-2.1,4.4-3.3c14.9-10.5,34.8-16.3,56.1-16.3s41.1,5.8,56.1,16.3c1.7,1.2,3.2,2.4,4.4,3.3&#xA;&#9;&#9;c0.4,0.3,0.6,0.7,0.7,1.2c0.1,0.5-0.1,1-0.4,1.4c-1.4,1.7-2.9,3.3-4.4,4.8C279.8,318.1,259.5,326.6,238.3,326.5z M181.6,297.3&#xA;&#9;&#9;c0.9,1.1,1.9,2.1,2.9,3.1c29.4,29.7,77.3,30,107,0.6c0.2-0.2,0.4-0.4,0.6-0.6c1-1,2-2.1,2.9-3.1c-0.8-0.6-1.8-1.3-2.7-2&#xA;&#9;&#9;c-14.3-10.1-33.5-15.6-54-15.6s-39.6,5.5-54,15.6C183.3,296,182.4,296.7,181.6,297.3z"/>
	<path class="st1_cybersecurity-1-28" d="M238.3,218.6c-21.2,0-41.1-5.8-56.1-16.2c-1.5-1-2.9-2.2-4.3-3.3c-0.8-0.6-0.9-1.8-0.2-2.6&#xA;&#9;&#9;c1.4-1.7,2.9-3.3,4.4-4.8c30.7-31.1,80.8-31.4,111.9-0.7c0.2,0.2,0.5,0.5,0.7,0.7c1.5,1.5,3,3.1,4.4,4.8c0.6,0.8,0.5,1.9-0.2,2.5&#xA;&#9;&#9;c0,0,0,0,0,0c-1.4,1.2-2.9,2.3-4.3,3.3C279.4,212.8,259.5,218.6,238.3,218.6z M181.6,197.3c0.9,0.7,1.8,1.4,2.7,2&#xA;&#9;&#9;c14.4,10.1,33.6,15.6,54,15.6s39.6-5.5,54-15.6c0.9-0.6,1.8-1.3,2.7-2c-0.9-1.1-1.9-2.1-3-3.2c-29.3-29.7-77.1-30-106.8-0.6&#xA;&#9;&#9;c-0.2,0.2-0.4,0.4-0.6,0.6C183.5,195.2,182.5,196.2,181.6,197.3z"/>
	<path class="st1_cybersecurity-1-28" d="M238.3,326.5c-25.5,0-46.2-35.5-46.2-79.2s20.7-79.2,46.2-79.2s46.2,35.5,46.2,79.2S263.7,326.5,238.3,326.5z&#xA;&#9;&#9; M238.3,171.7c-23.4,0-42.5,33.9-42.5,75.6s19.1,75.6,42.5,75.6s42.5-33.9,42.5-75.6S261.7,171.7,238.3,171.7z"/>
	<path class="st1_cybersecurity-1-28" d="M315.6,249.1H160.9c-1,0-1.8-0.8-1.8-1.8c0-1,0.8-1.8,1.8-1.8h154.8c1,0,1.8,0.8,1.8,1.8&#xA;&#9;&#9;C317.5,248.3,316.6,249.1,315.6,249.1z"/>
	<path class="st1_cybersecurity-1-28" d="M238.3,326.5c-1,0-1.8-0.8-1.8-1.8l0,0V169.9c0-1,0.8-1.8,1.8-1.8c1,0,1.8,0.8,1.8,1.8v154.8&#xA;&#9;&#9;C240.1,325.7,239.3,326.5,238.3,326.5z"/>
	<path class="st6_cybersecurity-1-28" d="M143.2,184.7H86.7c-1,0-1.8-0.8-1.8-1.8c0-1,0.8-1.8,1.8-1.8h56.5c1,0,1.8,0.8,1.8,1.8&#xA;&#9;&#9;S144.2,184.7,143.2,184.7C143.2,184.7,143.2,184.7,143.2,184.7L143.2,184.7z"/>
	<path class="st6_cybersecurity-1-28" d="M143.2,209.1H86.7c-1,0.1-1.9-0.7-1.9-1.7s0.7-1.9,1.7-1.9c0.1,0,0.2,0,0.3,0h56.5c1-0.1,1.9,0.7,1.9,1.7&#xA;&#9;&#9;s-0.7,1.9-1.7,1.9C143.4,209.1,143.3,209.1,143.2,209.1L143.2,209.1z"/>
	<path class="st6_cybersecurity-1-28" d="M143.2,233.5H86.7c-1,0.1-1.9-0.7-1.9-1.7s0.7-1.9,1.7-1.9c0.1,0,0.2,0,0.3,0h56.5c1-0.1,1.9,0.7,1.9,1.7&#xA;&#9;&#9;s-0.7,1.9-1.7,1.9C143.4,233.5,143.3,233.5,143.2,233.5L143.2,233.5z"/>
	<path class="st6_cybersecurity-1-28" d="M143.2,257.9H86.7c-1,0-1.8-0.8-1.8-1.8c0-1,0.8-1.8,1.8-1.8c0,0,0,0,0,0h56.5c1,0,1.8,0.8,1.8,1.8&#xA;&#9;&#9;S144.2,257.8,143.2,257.9C143.2,257.9,143.2,257.9,143.2,257.9L143.2,257.9z"/>
	<path class="st6_cybersecurity-1-28" d="M143.2,282.2H86.7c-1,0.1-1.9-0.7-1.9-1.7c-0.1-1,0.7-1.9,1.7-1.9c0.1,0,0.2,0,0.3,0h56.5&#xA;&#9;&#9;c1-0.1,1.9,0.7,1.9,1.7c0.1,1-0.7,1.9-1.7,1.9C143.4,282.2,143.3,282.2,143.2,282.2L143.2,282.2z"/>
	<path class="st6_cybersecurity-1-28" d="M143.2,306.6H86.7c-1,0.1-1.9-0.7-1.9-1.7c-0.1-1,0.7-1.9,1.7-1.9c0.1,0,0.2,0,0.3,0h56.5&#xA;&#9;&#9;c1-0.1,1.9,0.7,1.9,1.7c0.1,1-0.7,1.9-1.7,1.9C143.4,306.6,143.3,306.6,143.2,306.6L143.2,306.6z"/>
	<path class="st6_cybersecurity-1-28" d="M121,331H86.7c-1,0-1.8-0.8-1.8-1.8s0.8-1.8,1.8-1.8H121c1,0,1.8,0.8,1.8,1.8S122,331,121,331z"/>
	<path class="st6_cybersecurity-1-28" d="M388.3,181.4h-49.6c-1,0-1.8-0.8-1.8-1.8c0-1,0.8-1.8,1.8-1.8h49.6c1,0,1.8,0.8,1.8,1.8&#xA;&#9;&#9;C390.1,180.6,389.3,181.4,388.3,181.4L388.3,181.4z"/>
	<path class="st6_cybersecurity-1-28" d="M388.3,203.4h-49.6c-1,0-1.8-0.8-1.8-1.8c0-1,0.8-1.8,1.8-1.8h49.6c1,0,1.8,0.8,1.8,1.8&#xA;&#9;&#9;C390.1,202.6,389.3,203.4,388.3,203.4L388.3,203.4z"/>
	<path class="st6_cybersecurity-1-28" d="M388.3,225.4H356c-1,0.1-1.9-0.7-1.9-1.7c-0.1-1,0.7-1.9,1.7-1.9c0.1,0,0.2,0,0.3,0h32.2&#xA;&#9;&#9;c1-0.1,1.9,0.7,1.9,1.7c0.1,1-0.7,1.9-1.7,1.9C388.4,225.4,388.3,225.4,388.3,225.4L388.3,225.4z"/>
</g>
<g id="padlock_cybersecurity-1-28">
	<path class="st0_cybersecurity-1-28 targetColor" d="M356.2,278c-2.5,0-4.5-2-4.5-4.5v-10.3c0-13.3-10.8-24.1-24.1-24.1c-13.3,0-24.1,10.8-24.1,24.1v10.3&#xA;&#9;&#9;c-0.1,2.5-2.2,4.4-4.8,4.3c-2.3-0.1-4.2-2-4.3-4.3v-10.3c0-18.3,14.8-33.2,33.2-33.2c18.3,0,33.2,14.8,33.2,33.2c0,0,0,0,0,0v10.3&#xA;&#9;&#9;C360.8,276,358.7,278,356.2,278C356.2,278,356.2,278,356.2,278z" style="fill: rgb(104, 225, 253);"/>
	<path class="st1_cybersecurity-1-28" d="M356.2,279.8c-3.5,0-6.4-2.8-6.4-6.4v-10.3c0-12.3-10-22.3-22.3-22.3c-12.3,0-22.3,10-22.3,22.3v10.3&#xA;&#9;&#9;c0,3.5-2.8,6.4-6.4,6.4c-3.5,0-6.4-2.8-6.4-6.4l0,0v-10.3c0-19.3,15.7-35,35-35s35,15.7,35,35v10.3&#xA;&#9;&#9;C362.6,277,359.8,279.8,356.2,279.8z M327.6,237.3c14.3,0,25.9,11.6,25.9,25.9v10.3c0.1,1.5,1.4,2.7,2.9,2.6&#xA;&#9;&#9;c1.4-0.1,2.5-1.2,2.6-2.6v-10.3c0-17.3-14-31.4-31.4-31.4s-31.4,14-31.4,31.4v10.3c0.1,1.5,1.4,2.7,2.9,2.6&#xA;&#9;&#9;c1.4-0.1,2.5-1.2,2.6-2.6v-10.3C301.7,248.9,313.3,237.3,327.6,237.3L327.6,237.3z"/>
	<path class="st0_cybersecurity-1-28 targetColor" d="M296.1,269.4h61.7c7.5,0,13.5,6.1,13.5,13.5v48.6c0,7.5-6.1,13.5-13.5,13.5h-61.7c-7.5,0-13.5-6.1-13.5-13.5&#xA;&#9;&#9;V283C282.6,275.5,288.7,269.4,296.1,269.4z" style="fill: rgb(104, 225, 253);"/>
	<path class="st1_cybersecurity-1-28" d="M356.8,347h-59.5c-9.1,0-16.4-7.4-16.5-16.5v-46.5c0-9.1,7.4-16.4,16.5-16.5h59.5c9.1,0,16.5,7.4,16.5,16.5&#xA;&#9;&#9;v46.4C373.2,339.6,365.9,347,356.8,347z M297.2,271.3c-7.1,0-12.8,5.8-12.8,12.8v46.4c0,7.1,5.7,12.8,12.8,12.8h59.5&#xA;&#9;&#9;c7.1,0,12.8-5.7,12.8-12.8v-46.4c0-7.1-5.7-12.8-12.8-12.8L297.2,271.3z"/>
	<path class="st1_cybersecurity-1-28" d="M336.5,296.9c0-5.2-4.2-9.4-9.4-9.4s-9.4,4.2-9.4,9.4c0,3.9,2.4,7.4,6,8.8v21.4h5.4v-20.9&#xA;&#9;&#9;C333.3,305.3,336.4,301.4,336.5,296.9z"/>
	<path class="st1_cybersecurity-1-28" d="M328.9,328.9h-5.4c-1,0-1.8-0.8-1.8-1.8c0,0,0,0,0,0v-20.3c-5.5-2.9-7.6-9.7-4.6-15.2s9.7-7.6,15.2-4.6&#xA;&#9;&#9;s7.6,9.7,4.6,15.2c-1.3,2.5-3.6,4.4-6.2,5.3v19.5C330.7,328.1,329.9,328.9,328.9,328.9C328.9,328.9,328.9,328.9,328.9,328.9z&#xA;&#9;&#9; M325.4,325.3h1.7v-19.1c0-0.9,0.6-1.6,1.5-1.8c4.1-0.8,6.8-4.9,6-9c-0.8-4.1-4.9-6.8-9-6c-4.1,0.8-6.8,4.9-6,9&#xA;&#9;&#9;c0.5,2.5,2.3,4.6,4.7,5.6c0.7,0.3,1.1,0.9,1.1,1.7V325.3z"/>
</g>
</svg>