<svg version="1.1" id="Layer_1" xmlns="http://www.w3.org/2000/svg" xmlns:xlink="http://www.w3.org/1999/xlink" x="0px" y="0px" viewBox="0 0 500 500" style="width: 185px;" xml:space="preserve" data-imageid="authentication-1-5" imageName="Authentication 1" class="illustrations_image">
<style type="text/css">
	.st0_authentication-1-5{fill:#D1D3D4;}
	.st1_authentication-1-5{fill:#FFFFFF;}
	.st2_authentication-1-5{fill:#231F20;}
	.st3_authentication-1-5{fill:#68E1FD;}
</style>
<path id="Floor_authentication-1-5" class="st0_authentication-1-5" d="M458.6,354.9H33.3c-0.4,0-0.7-0.3-0.7-0.7c0-0.4,0.3-0.7,0.7-0.7c0,0,0,0,0,0h425.3&#xA;&#9;c0.4,0,0.7,0.3,0.7,0.7C459.3,354.6,459,354.9,458.6,354.9z"/>
<g id="Screen_authentication-1-5">
	<path class="st1_authentication-1-5" d="M52.3,126.1h252.5c11.3,0,20.5,9.2,20.5,20.5V308c0,11.3-9.2,20.5-20.5,20.5H52.3c-11.3,0-20.5-9.2-20.5-20.5&#xA;&#9;&#9;V146.6C31.8,135.3,41,126.1,52.3,126.1z"/>
	<path class="st2_authentication-1-5" d="M304.8,329.2H52.3c-11.7,0-21.2-9.5-21.2-21.2V146.6c0-11.7,9.5-21.2,21.2-21.2h252.5&#xA;&#9;&#9;c11.7,0,21.2,9.5,21.2,21.2V308C326,319.7,316.5,329.2,304.8,329.2z M52.3,126.8c-10.9,0-19.8,8.9-19.8,19.8V308&#xA;&#9;&#9;c0,10.9,8.9,19.8,19.8,19.8h252.5c10.9,0,19.8-8.9,19.8-19.8V146.6c0-10.9-8.9-19.8-19.8-19.8L52.3,126.8z"/>
	<path class="st2_authentication-1-5" d="M325.8,291.5H32.7c-0.4,0-0.7-0.3-0.7-0.7c0-0.4,0.3-0.7,0.7-0.7h293.1c0.4,0,0.7,0.3,0.7,0.7&#xA;&#9;&#9;S326.2,291.5,325.8,291.5C325.8,291.5,325.8,291.5,325.8,291.5z"/>
	<path class="st0_authentication-1-5" d="M178.6,315.6c-4.3,0-7.7-3.5-7.7-7.7c0-4.3,3.5-7.7,7.7-7.7c4.3,0,7.7,3.5,7.7,7.7l0,0&#xA;&#9;&#9;C186.3,312.2,182.8,315.6,178.6,315.6z M178.6,301.6c-3.5,0-6.3,2.8-6.3,6.3c0,3.5,2.8,6.3,6.3,6.3c3.5,0,6.3-2.8,6.3-6.3&#xA;&#9;&#9;c0,0,0,0,0,0C184.9,304.4,182,301.6,178.6,301.6z"/>
	<path class="st1_authentication-1-5" d="M125.4,361.3h106.3c3.2,0,5.9,2.6,5.9,5.9v0.9c0,3.2-2.6,5.9-5.9,5.9H125.4c-3.2,0-5.8-2.6-5.8-5.9v-0.9&#xA;&#9;&#9;C119.6,363.9,122.2,361.3,125.4,361.3z"/>
	<path class="st2_authentication-1-5" d="M231.7,374.6H125.4c-3.6,0-6.5-2.9-6.6-6.5v-0.9c0-3.6,2.9-6.5,6.6-6.5h106.3c3.6,0,6.5,2.9,6.6,6.5v0.9&#xA;&#9;&#9;C238.3,371.6,235.3,374.6,231.7,374.6C231.7,374.6,231.7,374.6,231.7,374.6z M125.4,362c-2.8,0-5.1,2.3-5.2,5.1v0.9&#xA;&#9;&#9;c0,2.8,2.3,5.1,5.2,5.1h106.3c2.8,0,5.1-2.3,5.1-5.1v-0.9c0-2.8-2.3-5.1-5.1-5.1L125.4,362z"/>
	<polygon class="st1_authentication-1-5" points="218.8,361.5 138.3,361.5 143.8,328.5 213.3,328.5 &#9;"/>
	<path class="st2_authentication-1-5" d="M218.8,362.2h-80.5c-0.2,0-0.4-0.1-0.5-0.2c-0.1-0.2-0.2-0.4-0.2-0.6l5.5-33c0.1-0.3,0.3-0.6,0.7-0.6h69.4&#xA;&#9;&#9;c0.3,0,0.6,0.3,0.7,0.6l5.5,33c0,0.2,0,0.4-0.2,0.6C219.2,362.1,219,362.2,218.8,362.2z M139.1,360.8H218l-5.3-31.6h-68.3&#xA;&#9;&#9;L139.1,360.8z"/>
	<polygon class="st2_authentication-1-5" points="141.1,345 214.4,335 213.3,328.5 143.8,328.5 &#9;"/>
	<path class="st2_authentication-1-5" d="M141.1,345.7c-0.2,0-0.4-0.1-0.5-0.2c-0.2-0.2-0.2-0.4-0.2-0.6l2.8-16.5c0.1-0.3,0.3-0.6,0.7-0.6h69.4&#xA;&#9;&#9;c0.3,0,0.6,0.2,0.7,0.6l1.1,6.5c0,0.2,0,0.4-0.1,0.5c-0.1,0.1-0.3,0.3-0.5,0.3L141.1,345.7L141.1,345.7z M144.4,329.2l-2.5,15&#xA;&#9;&#9;l71.6-9.7l-0.9-5.3L144.4,329.2z"/>
</g>
<g id="Password_authentication-1-5">
	<path class="st3_authentication-1-5 targetColor" d="M155.1,168.7H202c4.7,0,8.6,3.8,8.6,8.6V201c0,4.7-3.8,8.6-8.6,8.6h-46.9c-4.7,0-8.6-3.8-8.6-8.6v-23.7&#xA;&#9;&#9;C146.5,172.5,150.3,168.7,155.1,168.7z" style="fill: rgb(104, 225, 253);"/>
	<path class="st3_authentication-1-5 targetColor" d="M194.6,178.8h-32.1c-2.8,0-5-2.2-5-5V161c-0.3-11.6,9-21.3,20.6-21.5c11.6-0.3,21.3,9,21.5,20.6&#xA;&#9;&#9;c0,0.3,0,0.6,0,0.9v12.7c0,2.8-2.2,5-4.9,5.1C194.7,178.8,194.6,178.8,194.6,178.8z M167.6,168.7h22V161c0-6.1-4.9-11-11-11&#xA;&#9;&#9;s-11,4.9-11,11V168.7z" style="fill: rgb(104, 225, 253);"/>
	<circle class="st2_authentication-1-5" cx="178.6" cy="182.8" r="6.1"/>
	<rect x="176.8" y="183.9" class="st2_authentication-1-5" width="3.4" height="14.3"/>
	<path class="st0_authentication-1-5" d="M277.5,270h-198c-13.1,0-23.8-10.7-23.8-23.8c0-13.1,10.7-23.8,23.8-23.8h198c13.1,0,23.8,10.7,23.8,23.8&#xA;&#9;&#9;C301.3,259.3,290.7,270,277.5,270z M79.5,223.8c-12.4,0-22.4,10-22.4,22.4s10,22.4,22.4,22.4h198c12.4,0,22.4-10,22.4-22.4&#xA;&#9;&#9;s-10-22.4-22.4-22.4H79.5z"/>
	<path class="st2_authentication-1-5" d="M137.9,248l3,4l-3.4,2.4l-3-4.1l-3,3.9l-3.3-2.4l3-3.9l-4.8-1.6l1.3-3.7l4.7,1.6v-4.9h4.1v4.9l4.7-1.5l1.3,3.7&#xA;&#9;&#9;L137.9,248z"/>
	<path class="st2_authentication-1-5" d="M159.9,248l3,4l-3.4,2.4l-3-4.1l-2.9,3.9l-3.3-2.4l3-3.9l-4.8-1.6l1.3-3.7l4.7,1.6v-4.9h4.1v4.9l4.7-1.5&#xA;&#9;&#9;l1.3,3.7L159.9,248z"/>
	<path class="st2_authentication-1-5" d="M181.9,248l3,4l-3.4,2.4l-3-4.1l-2.9,3.9l-3.3-2.4l3-3.9l-4.8-1.6l1.3-3.7l4.7,1.6v-4.9h4.1v4.9l4.7-1.5&#xA;&#9;&#9;l1.3,3.7L181.9,248z"/>
	<path class="st2_authentication-1-5" d="M203.8,248l3,4l-3.4,2.4l-3-4.1l-3,3.9l-3.3-2.4l3-3.9l-4.8-1.6l1.3-3.7l4.7,1.6v-4.9h4.1v4.9l4.7-1.5l1.3,3.7&#xA;&#9;&#9;L203.8,248z"/>
	<path class="st2_authentication-1-5" d="M225.8,248l3,4l-3.4,2.4l-3-4.1l-2.9,3.9l-3.3-2.4l3-3.9l-4.8-1.6l1.3-3.7l4.7,1.6v-4.9h4.1v4.9l4.7-1.5&#xA;&#9;&#9;l1.3,3.7L225.8,248z"/>
</g>
<g id="Arrow_authentication-1-5">
	<path class="st2_authentication-1-5" d="M278.5,183.5c0,0,29.5-29.3,64.6-22.8l-2.3,10.5l21.7-8L347,140.9l-1.3,9.5c0,0-30.6-11.9-78.3,8.9&#xA;&#9;&#9;L278.5,183.5z"/>
	<path class="st2_authentication-1-5" d="M278.5,184.2h-0.1c-0.2,0-0.4-0.2-0.5-0.4l-11.1-24.2c-0.1-0.2-0.1-0.4,0-0.5c0.1-0.2,0.2-0.3,0.4-0.4&#xA;&#9;&#9;c43.1-18.8,72.7-10.9,78-9.2l1.2-8.6c0.1-0.4,0.4-0.6,0.8-0.6c0.2,0,0.4,0.1,0.5,0.3l15.4,22.2c0.1,0.2,0.2,0.4,0.1,0.6&#xA;&#9;&#9;c-0.1,0.2-0.2,0.4-0.4,0.4l-21.7,8c-0.2,0.1-0.5,0-0.7-0.1c-0.2-0.2-0.3-0.4-0.3-0.7l2.2-9.8c-34-5.9-62.9,22.5-63.2,22.8&#xA;&#9;&#9;C278.8,184.1,278.6,184.2,278.5,184.2z M268.3,159.7l10.4,22.6c4.8-4.4,32.5-28.3,64.5-22.3c0.2,0,0.3,0.1,0.5,0.3&#xA;&#9;&#9;c0.1,0.2,0.1,0.4,0.1,0.5l-2.1,9.2l19.7-7.2l-13.9-20l-1.1,7.7c0,0.2-0.2,0.4-0.3,0.5c-0.2,0.1-0.4,0.1-0.6,0.1&#xA;&#9;&#9;C345.1,150.9,314.7,139.6,268.3,159.7L268.3,159.7z"/>
</g>
<g id="Hand_with_Smartphone_authentication-1-5">
	<path class="st1_authentication-1-5" d="M441.8,346.3l15.2-70.1l5-34.9c0,0-36.9-38.9-47.4-51.6s-22.2-30.8-27.9-29.7s-7,7.5-3.6,15.5&#xA;&#9;&#9;c1.4,3.3,3.6,7,4.5,10.4c0.8,2.8,0.2,10.5-2.5,12.3c-3.3,2.2-5.9-9.1-10-7.3c-2.2,1-4.5,6.3-2.9,12.2c1,2.8,2.3,5.6,3.8,8.2&#xA;&#9;&#9;c3.1,5.5,3,8.8,5,14.7c2,6.1,1.7-2-0.5,3.4c-2.7,6.6-6.5,14.3-6.9,21.6c-0.6,11.6,12.6,30.9,18.1,40.2s-6.4,35.1-6.4,35.1&#xA;&#9;&#9;L441.8,346.3z"/>
	<path class="st2_authentication-1-5" d="M441.8,347c-0.1,0-0.2,0-0.2,0l-56.5-19.8c-0.2-0.1-0.3-0.2-0.4-0.4c-0.1-0.2-0.1-0.4,0-0.6&#xA;&#9;&#9;c0.1-0.2,11.6-25.6,6.4-34.5c-0.9-1.5-2-3.3-3.2-5.3c-6.2-10.1-15.5-25.4-15-35.3c0.4-6.3,3.1-12.9,5.6-18.7&#xA;&#9;&#9;c0.5-1.1,0.9-2.1,1.3-3.1c0.2-0.6,0.5-1.2,0.9-1.7c-0.1-0.3-0.3-0.7-0.4-1.2c-0.6-2-1.1-3.7-1.5-5.3c-0.6-3.2-1.8-6.4-3.4-9.2&#xA;&#9;&#9;c-1.6-2.6-2.8-5.4-3.9-8.3c-1.7-6.3,0.8-11.9,3.2-13.1c2.7-1.2,4.6,1.7,6.3,4.2c0.6,1,1.3,1.9,2.1,2.8c0.8,0.7,1.1,0.5,1.4,0.3&#xA;&#9;&#9;c2.3-1.6,3-8.9,2.2-11.5c-0.7-2.3-1.7-4.6-2.8-6.7c-0.6-1.2-1.2-2.4-1.6-3.6c-2.2-5.2-2.5-9.8-0.9-12.9c1-1.9,2.9-3.2,5-3.6&#xA;&#9;&#9;c4.7-0.9,12,8.6,20.5,19.7c2.6,3.4,5.4,7,8,10.2c10.3,12.5,47,51.2,47.4,51.6c0.2,0.2,0.2,0.4,0.2,0.6l-5,34.9l-15.1,70.1&#xA;&#9;&#9;c0,0.2-0.2,0.4-0.4,0.5C442.1,347,442,347,441.8,347z M386.3,326.1l55,19.3l15-69.3l5-34.5c-3.2-3.3-37.2-39.3-47.2-51.4&#xA;&#9;&#9;c-2.6-3.2-5.4-6.8-8-10.2c-7.5-9.8-15.3-19.9-19.1-19.2c-1.7,0.3-3.2,1.3-4,2.9c-1.4,2.7-1.1,6.9,0.9,11.7c0.5,1.1,1,2.3,1.6,3.5&#xA;&#9;&#9;c1.2,2.2,2.1,4.6,2.9,7c0.8,2.8,0.3,11-2.8,13.1c-0.7,0.5-1.8,0.8-3.2-0.5c-0.9-0.9-1.7-1.9-2.4-3c-1.8-2.6-3.1-4.4-4.6-3.7&#xA;&#9;&#9;c-1.8,0.8-4,5.7-2.5,11.4c1,2.8,2.2,5.5,3.7,8c1.7,3,2.9,6.2,3.6,9.6c0.4,1.6,0.8,3.3,1.4,5.2c0.1,0.4,0.2,0.7,0.3,0.9h0.1&#xA;&#9;&#9;c0.6,0.2,1,0.8,0.9,1.4c0,0.4-0.3,0.8-0.7,0.9c-0.3,0-0.6-0.1-0.8-0.3c-0.1,0.2-0.2,0.5-0.4,0.9c-0.4,1-0.9,2.1-1.3,3.2&#xA;&#9;&#9;c-2.4,5.7-5.2,12.2-5.5,18.2c-0.5,9.5,8.7,24.5,14.8,34.5c1.2,2,2.3,3.8,3.2,5.4C397.5,299.8,388.2,321.8,386.3,326.1z"/>
	<path class="st1_authentication-1-5" d="M418.6,286.3l-58.2-20.4c-2.3-0.8-3.6-3.4-2.8-5.7l43.6-124.4c0.8-2.3,3.4-3.6,5.7-2.8l58.2,20.4&#xA;&#9;&#9;c2.3,0.8,3.6,3.4,2.8,5.7l-43.6,124.4C423.5,285.9,420.9,287.1,418.6,286.3z"/>
	<path class="st2_authentication-1-5" d="M420.1,287.2c-0.6,0-1.2-0.1-1.7-0.3l-58.2-20.4l0,0c-2.7-1-4.1-3.9-3.2-6.6l43.6-124.4&#xA;&#9;&#9;c0.9-2.7,3.9-4.1,6.6-3.2c0,0,0,0,0,0l58.2,20.4c1.3,0.5,2.4,1.4,3,2.7c0.6,1.2,0.7,2.7,0.2,4L425,283.8c-0.4,1.3-1.4,2.4-2.7,3&#xA;&#9;&#9;C421.6,287.1,420.9,287.2,420.1,287.2z M360.7,265.2l58.1,20.4c2,0.7,4.1-0.3,4.8-2.3c0,0,0,0,0,0l43.6-124.4&#xA;&#9;&#9;c0.7-2-0.3-4.1-2.3-4.9l-58.2-20.4c-0.9-0.3-2-0.3-2.9,0.2c-0.9,0.4-1.6,1.2-1.9,2.1l-43.6,124.4&#xA;&#9;&#9;C357.7,262.4,358.7,264.5,360.7,265.2L360.7,265.2z"/>
	<path class="st0_authentication-1-5" d="M425.7,268.6c-0.1,0-0.2,0-0.2,0l-59.6-20.9c-0.4-0.1-0.6-0.5-0.4-0.9c0,0,0,0,0,0l35.9-102.2&#xA;&#9;&#9;c0.1-0.2,0.2-0.3,0.4-0.4c0.2-0.1,0.4-0.1,0.5,0l59.7,20.9c0.4,0.1,0.6,0.5,0.4,0.9c0,0,0,0,0,0l-35.9,102.3&#xA;&#9;&#9;c-0.1,0.2-0.2,0.3-0.4,0.4C425.9,268.6,425.8,268.6,425.7,268.6z M367,246.6l58.3,20.4l35.4-100.9l-58.3-20.5L367,246.6z"/>
	<path class="st0_authentication-1-5" d="M396.9,274.6c-0.4,0-0.8-0.1-1.1-0.2l-11.3-4c-0.9-0.3-1.6-0.9-2-1.8c-0.4-0.8-0.4-1.8-0.1-2.6l1.5-4.3&#xA;&#9;&#9;c0.6-1.8,2.6-2.8,4.4-2.1l11.3,4c1.8,0.6,2.8,2.6,2.1,4.4l-1.5,4.3C399.6,273.7,398.3,274.6,396.9,274.6z M387,260.8&#xA;&#9;&#9;c-0.9,0-1.7,0.6-2,1.4l-1.5,4.3c-0.4,1.1,0.2,2.3,1.3,2.6l0,0l11.4,4c1.1,0.4,2.2-0.2,2.6-1.3c0,0,0,0,0,0l1.5-4.3&#xA;&#9;&#9;c0.4-1.1-0.2-2.3-1.3-2.6l-11.4-4C387.5,260.8,387.2,260.8,387,260.8z"/>
	<path class="st0_authentication-1-5" d="M446,154.1c-0.1,0-0.2,0-0.2,0l-17-6c-0.4-0.1-0.6-0.5-0.4-0.9c0,0,0,0,0,0c0.1-0.4,0.5-0.6,0.9-0.4l17,6&#xA;&#9;&#9;c0.4,0.1,0.6,0.5,0.4,0.9C446.6,154,446.3,154.1,446,154.1L446,154.1z"/>
	<path class="st0_authentication-1-5" d="M426.8,147.1c-0.1,0-0.2,0-0.2,0l-2.3-0.8c-0.4-0.1-0.6-0.5-0.5-0.9s0.5-0.6,0.9-0.5c0,0,0,0,0.1,0l2.3,0.8&#xA;&#9;&#9;c0.4,0.1,0.6,0.5,0.4,0.9C427.3,147,427,147.1,426.8,147.1L426.8,147.1z"/>
	<circle class="st3_authentication-1-5 targetColor" cx="413.1" cy="209.8" r="21.7" style="fill: rgb(104, 225, 253);"/>
	<path class="st1_authentication-1-5" d="M391.1,203.2c-0.7,2.4-2.9,4.1-5.4,4.3c-3.1,0.3-6.1-0.7-8.6-2.5c-1.4-1.1-2.6-2.4-3.5-3.9&#xA;&#9;&#9;c-1.5-2.6-2-5.6-0.9-7.8c1.8-3.6,7.5-4.2,12.4-1.9C389.6,193.7,392,199.9,391.1,203.2z"/>
	<path class="st2_authentication-1-5" d="M384.6,208.3c-2.8-0.1-5.6-1-7.9-2.7c-1.5-1.1-2.7-2.5-3.7-4.1c-1.7-2.9-2.1-6.1-0.9-8.4&#xA;&#9;&#9;c1.9-3.8,7.9-4.8,13.3-2.2c4.8,2.3,7.4,8.8,6.4,12.6l0,0c-0.8,2.7-3.2,4.6-6,4.9C385.4,208.3,385,208.3,384.6,208.3z M379.3,190.8&#xA;&#9;&#9;c-2.7,0-5,1-5.9,2.9s-0.6,4.6,0.8,7.1c0.9,1.4,2,2.7,3.3,3.7c2.3,1.8,5.2,2.6,8.1,2.4c2.3-0.1,4.2-1.7,4.9-3.8l0,0&#xA;&#9;&#9;c0.8-2.9-1.3-8.8-5.7-10.9C383.1,191.3,381.2,190.8,379.3,190.8z"/>
	<path class="st1_authentication-1-5" d="M384.4,219.7c0.5,1.7,0.2,3.6-0.9,5c-0.7,0.8-1.6,1.4-2.6,1.8c-2.7,1.2-5.9,1.6-8.4,0.2&#xA;&#9;&#9;c-1.5-0.9-2.9-2.2-3.9-3.7c-1.8-2.5-3.4-5.4-3.2-8.5c0.3-4.5,5.3-9.4,9.8-7.1C379,209.3,383.5,215.8,384.4,219.7z"/>
	<path class="st2_authentication-1-5" d="M376.2,228.3c-1.4,0-2.8-0.3-4-0.9c-1.6-1-3-2.3-4.1-3.9c-2.5-3.4-3.5-6.2-3.4-8.9c0.3-3.1,2.1-5.8,4.7-7.4&#xA;&#9;&#9;c1.9-1.2,4.2-1.3,6.1-0.3c3.9,2,8.5,8.6,9.5,12.8l0,0c0.5,1.9,0.2,4-1,5.6c-0.8,0.9-1.8,1.6-2.9,2&#xA;&#9;&#9;C379.7,227.9,378,228.3,376.2,228.3z M372.9,207.6c-1,0-1.9,0.3-2.8,0.8c-2.2,1.3-3.7,3.6-4,6.2c-0.1,2.4,0.8,5,3.1,8&#xA;&#9;&#9;c0.9,1.4,2.2,2.6,3.6,3.5c2.1,1.1,5,1,7.8-0.2c0.9-0.3,1.7-0.9,2.3-1.6c0.9-1.3,1.2-2.9,0.8-4.4l0,0c-0.9-3.7-5.2-10.1-8.8-11.8&#xA;&#9;&#9;C374.3,207.7,373.6,207.5,372.9,207.6L372.9,207.6z"/>
	<path class="st1_authentication-1-5" d="M377.5,231.9c0.7,1,1.2,2.1,1.4,3.2c0.3,2.7-0.9,5.4-3.2,6.8c-2.3,1.4-5.1,1.8-7.7,1.1&#xA;&#9;&#9;c-3.1-0.7-5.8-2.7-7.4-5.4c-1.5-2.8-1.5-6.3,0.2-9C365.4,221.7,373.9,226.8,377.5,231.9z"/>
	<path class="st2_authentication-1-5" d="M370.6,244.1c-0.9,0-1.8-0.1-2.7-0.3c-3.3-0.7-6.2-2.8-7.8-5.8c-1.6-3-1.6-6.7,0.2-9.7&#xA;&#9;&#9;c1.3-2.3,3.7-3.7,6.3-3.7c4.3-0.1,9.1,3.4,11.5,7l0,0c0.8,1,1.3,2.2,1.5,3.5c0.4,3-1,5.9-3.5,7.5&#xA;&#9;&#9;C374.4,243.6,372.5,244.1,370.6,244.1z M366.7,226h-0.1c-2.1,0-4.1,1.2-5.1,3.1c-1.5,2.5-1.6,5.7-0.2,8.3c1.5,2.6,4,4.4,6.9,5.1&#xA;&#9;&#9;c2.4,0.6,5,0.3,7.1-1c2.1-1.3,3.2-3.7,2.9-6.1c-0.2-1.1-0.7-2.1-1.3-2.9l0,0C374.7,229.1,370.5,226,366.7,226z"/>
	<path class="st1_authentication-1-5" d="M456.3,278.2c0,0,12.1-35.8,10.4-44.3s-4.4-42.8-7.8-44.3s-10.8,8-11,18.7c-0.2,6.3,0.6,12.5,2.4,18.6&#xA;&#9;&#9;c0,0-11.9,4.7-14.2,33.3"/>
	<path class="st2_authentication-1-5" d="M456.3,278.9c-0.1,0-0.2,0-0.2,0c-0.4-0.1-0.6-0.5-0.4-0.9c0.1-0.4,12-35.7,10.4-43.9&#xA;&#9;&#9;c-0.5-2.6-1.1-7.7-1.8-13.5c-1.2-10.3-3.5-29.4-5.6-30.2c-0.8-0.2-1.6,0-2.2,0.5c-3.2,2.1-7.7,9.3-7.9,17.5&#xA;&#9;&#9;c-0.2,6.2,0.6,12.4,2.3,18.3c0.1,0.4-0.1,0.7-0.4,0.9c-0.1,0-11.5,5-13.8,32.7c0,0.4-0.3,0.7-0.7,0.6c0,0,0,0,0,0&#xA;&#9;&#9;c-0.4,0-0.7-0.4-0.6-0.8c2.1-25.4,11.5-32.2,14-33.6c-1.6-5.9-2.4-12.1-2.2-18.2c0.2-8.2,4.6-16.1,8.5-18.6&#xA;&#9;&#9;c1.6-1.1,2.8-0.9,3.5-0.7c2.4,1,3.9,10.5,6.4,31.4c0.7,5.8,1.3,10.8,1.8,13.4c1.7,8.6-9.9,43.2-10.4,44.6&#xA;&#9;&#9;C456.8,278.7,456.5,278.9,456.3,278.9z"/>
	<path class="st1_authentication-1-5" d="M401.9,218.3c-1.5,0-2.8-1.3-2.8-2.8c0-0.2,0-0.3,0-0.5l2.1-12.4c0.3-1.5,1.8-2.5,3.3-2.2&#xA;&#9;&#9;c1.4,0.3,2.4,1.6,2.2,3.1l-1.3,8l19.4-5.8c1.5-0.4,3,0.4,3.5,1.9c0.4,1.5-0.4,3-1.8,3.4l-23.7,7.1&#xA;&#9;&#9;C402.5,218.3,402.2,218.3,401.9,218.3z"/>
	<polygon class="st2_authentication-1-5" points="440.1,373.9 451.4,317.1 389.2,300 365.6,373.9 &#9;"/>
	<path class="st2_authentication-1-5" d="M440.1,374.6h-74.6c-0.2,0-0.4-0.1-0.6-0.3c-0.1-0.2-0.2-0.4-0.1-0.6l23.7-73.9c0.1-0.4,0.5-0.5,0.8-0.5&#xA;&#9;&#9;l62.1,17.1c0.4,0.1,0.6,0.5,0.5,0.8L440.8,374C440.8,374.3,440.5,374.6,440.1,374.6z M366.5,373.2h73l11-55.5l-60.9-16.8&#xA;&#9;&#9;L366.5,373.2z"/>
</g>
</svg>